HIERARCHY
ROOT Hips
{
	OFFSET 0.000000 0.000000 0.000000
	CHANNELS 6 Xposition Yposition Zposition Xrotation Yrotation Zrotation
	JOINT LeftUpLeg_virtual
	{
		OFFSET 0.000000 0.000000 0.000000
		CHANNELS 3 Xrotation Yrotation Zrotation
		JOINT LeftUpLeg
		{
			OFFSET 15.427100 -6.655098 0.678600
			CHANNELS 3 Xrotation Yrotation Zrotation
			JOINT LeftLeg
			{
				OFFSET 4.081073 -39.591068 13.024000
				CHANNELS 3 Xrotation Yrotation Zrotation
				JOINT LeftFoot
				{
					OFFSET -4.081074 -37.707932 -15.979700
					CHANNELS 3 Xrotation Yrotation Zrotation
					JOINT LeftToeBase
					{
						OFFSET 5.346399 -15.068900 20.645000
						CHANNELS 3 Xrotation Yrotation Zrotation
						JOINT LeftToe_End
						{
							OFFSET 2.754700 0.931300 11.300900
							CHANNELS 3 Xrotation Yrotation Zrotation
							End Site
							{
								OFFSET 0 0 0
							}
						}
					}
				}
			}
		}
	}
	JOINT RightUpLeg_virtual
	{
		OFFSET 0.000000 0.000000 0.000000
		CHANNELS 3 Xrotation Yrotation Zrotation
		JOINT RightUpLeg
		{
			OFFSET -15.569500 -6.655098 0.678600
			CHANNELS 3 Xrotation Yrotation Zrotation
			JOINT RightLeg
			{
				OFFSET -4.081825 -39.591045 13.023800
				CHANNELS 3 Xrotation Yrotation Zrotation
				JOINT RightFoot
				{
					OFFSET 4.081824 -37.707954 -15.979600
					CHANNELS 3 Xrotation Yrotation Zrotation
					JOINT RightToeBase
					{
						OFFSET -5.346400 -15.068900 20.645000
						CHANNELS 3 Xrotation Yrotation Zrotation
						JOINT RightToe_End
						{
							OFFSET -2.754700 0.931300 11.300900
							CHANNELS 3 Xrotation Yrotation Zrotation
							End Site
							{
								OFFSET 0 0 0
							}
						}
					}
				}
			}
		}
	}
	JOINT Spine_virtual
	{
		OFFSET 0.000000 0.000000 0.000000
		CHANNELS 3 Xrotation Yrotation Zrotation
		JOINT Spine
		{
			OFFSET -0.279200 12.230698 -2.892100
			CHANNELS 3 Xrotation Yrotation Zrotation
			JOINT Spine1
			{
				OFFSET -0.232667 10.192268 -1.242267
				CHANNELS 3 Xrotation Yrotation Zrotation
				JOINT Spine1_split
				{
					OFFSET -0.232667 10.192268 -1.242267
					CHANNELS 3 Xrotation Yrotation Zrotation
					JOINT Spine2
					{
						OFFSET -0.232667 10.192268 -1.242267
						CHANNELS 3 Xrotation Yrotation Zrotation
						JOINT Neck_virtual
						{
							OFFSET 0.000000 0.000000 0.000000
							CHANNELS 3 Xrotation Yrotation Zrotation
							JOINT Neck
							{
								OFFSET -0.418800 17.814194 8.416900
								CHANNELS 3 Xrotation Yrotation Zrotation
								JOINT Head
								{
									OFFSET 0.000000 7.031097 3.806800
									CHANNELS 3 Xrotation Yrotation Zrotation
									JOINT HeadTop_End
									{
										OFFSET 0.000000 24.646606 12.978600
										CHANNELS 3 Xrotation Yrotation Zrotation
										End Site
										{
											OFFSET 0 0 0
										}
									}
								}
							}
						}
						JOINT LeftShoulder_virtual
						{
							OFFSET 0.000000 0.000000 0.000000
							CHANNELS 3 Xrotation Yrotation Zrotation
							JOINT LeftShoulder
							{
								OFFSET 8.476499 7.247704 -3.868750
								CHANNELS 3 Xrotation Yrotation Zrotation
								JOINT LeftShoulder_split
								{
									OFFSET 8.476499 7.247704 -3.868750
									CHANNELS 3 Xrotation Yrotation Zrotation
									JOINT LeftArm
									{
										OFFSET 9.308998 -2.777710 0.208600
										CHANNELS 3 Xrotation Yrotation Zrotation
										JOINT LeftForeArm
										{
											OFFSET 29.972298 0.000000 0.000000
											CHANNELS 3 Xrotation Yrotation Zrotation
											JOINT LeftHand
											{
												OFFSET 26.026505 0.000000 0.000000
												CHANNELS 3 Xrotation Yrotation Zrotation
												End Site
												{
													OFFSET 0 0 0
												}
											}
										}
									}
								}
							}
						}
						JOINT RightShoulder_virtual
						{
							OFFSET 0.000000 0.000000 0.000000
							CHANNELS 3 Xrotation Yrotation Zrotation
							JOINT RightShoulder
							{
								OFFSET -7.570500 7.247704 -3.868750
								CHANNELS 3 Xrotation Yrotation Zrotation
								JOINT RightShoulder_split
								{
									OFFSET -7.570500 7.247704 -3.868750
									CHANNELS 3 Xrotation Yrotation Zrotation
									JOINT RightArm
									{
										OFFSET -9.308998 -2.777710 0.208500
										CHANNELS 3 Xrotation Yrotation Zrotation
										JOINT RightForeArm
										{
											OFFSET -29.972300 0.000000 0.000000
											CHANNELS 3 Xrotation Yrotation Zrotation
											JOINT RightHand
											{
												OFFSET -26.026505 0.000000 0.000000
												CHANNELS 3 Xrotation Yrotation Zrotation
												End Site
												{
													OFFSET 0 0 0
												}
											}
										}
									}
								}
							}
						}
					}
				}
			}
		}
	}
}
MOTION
Frames: 10
Frame Time: 0.03333333
5.784633 77.528290 -10.610294 0.000000 0.000000 0.000000 44.681878 5.567767 -3.802405 -81.442015 7.058198 19.616216 39.253732 9.864351 -4.043650 2.494997 15.118561 -6.375273 0.729376 1.156424 -1.239655 0.000000 0.000000 0.000000 45.114462 4.816717 -1.733272 -44.455273 14.030575 -10.270722 64.345716 6.216965 -4.893334 13.054502 0.327896 16.868324 -46.254284 -1.629474 7.222228 0.000000 0.000000 0.000000 48.881307 -2.387288 1.503776 12.191789 0.468600 -3.003777 12.114746 1.780755 -0.738573 -0.076008 1.912680 1.228619 0.000000 0.000000 0.000000 27.061428 1.312076 -0.822263 -22.502659 -4.909640 5.994519 -18.661959 4.760415 -6.892763 0.000000 0.000000 0.000000 25.994515 2.318435 -0.298789 4.017352 -3.079292 6.539910 5.829899 -17.082016 -5.170192 -34.109920 -46.266339 -32.741533 2.545987 -47.480361 3.259045 0.000000 0.000000 0.000000 25.085328 1.033087 -0.075121 -2.228936 33.509478 10.991943 9.935769 10.893156 4.882286 -51.567518 23.147523 26.228017 2.386428 38.820422 -4.361577 0.000000 0.000000 0.000000 
5.604544 78.712723 -9.921768 0.000000 0.000000 0.000000 40.614200 3.754601 -2.744005 -76.511158 7.262433 18.611617 36.147106 10.326395 -4.195112 3.634608 15.797613 -7.419708 0.816201 1.224828 -1.240115 0.000000 0.000000 0.000000 40.909801 2.626575 -0.651718 -47.637752 14.011165 -9.745888 65.403685 5.749404 -4.355184 8.630228 -1.084970 13.813157 -35.882126 -0.655637 6.957652 0.000000 0.000000 0.000000 44.559447 -4.743647 2.199779 12.747834 0.395967 -3.052742 12.149029 1.744829 -0.528083 -0.144433 1.914117 1.164692 0.000000 0.000000 0.000000 26.973925 1.274055 -0.626083 -21.984564 -4.635922 5.902753 -17.997284 5.595898 -6.273180 0.000000 0.000000 0.000000 25.824293 2.233556 -0.116948 4.040875 -2.357504 5.237833 4.540147 -17.064420 -5.030777 -32.327473 -45.090006 -33.893024 2.264574 -47.029937 2.706524 0.000000 0.000000 0.000000 24.935007 1.018892 0.055105 -2.337753 32.489984 11.568438 10.725014 10.888938 5.628903 -49.904080 22.969825 28.924512 2.462103 37.252022 -4.903003 0.000000 0.000000 0.000000 
5.480134 79.798294 -9.175282 0.000000 0.000000 0.000000 36.539115 1.596470 -1.835851 -71.594453 7.512114 17.970168 33.329783 10.723849 -4.360896 4.507008 16.110719 -8.509822 0.687869 1.287835 -1.145481 0.000000 0.000000 0.000000 36.783837 -0.070461 0.348135 -49.997395 13.952599 -9.757190 64.567363 5.279522 -3.802684 4.926239 -2.107060 11.391914 -26.155030 0.178202 6.673034 0.000000 0.000000 0.000000 40.361736 -7.081917 2.686147 13.116961 0.375689 -3.067417 12.120607 1.768266 -0.331206 -0.223749 1.848643 1.155394 0.000000 0.000000 0.000000 26.836042 1.297341 -0.476565 -21.428385 -4.328359 5.711900 -17.311328 6.371905 -5.783158 0.000000 0.000000 0.000000 25.597148 2.218920 0.066185 4.054350 -1.672594 3.927255 3.185186 -16.760161 -4.876625 -30.730172 -43.735115 -35.347824 1.873476 -45.809891 2.082130 0.000000 0.000000 0.000000 24.719170 1.073202 0.172077 -2.332190 31.383896 11.931836 11.420756 10.516520 6.178801 -48.231668 22.570208 31.263900 2.385001 35.500461 -5.293875 0.000000 0.000000 0.000000 
5.436039 80.801010 -8.399361 0.000000 0.000000 0.000000 32.691013 -0.547654 -1.266917 -66.795309 8.018780 17.763708 30.750871 11.160018 -4.525849 5.066376 16.172090 -9.312945 0.614668 1.343276 -1.030495 0.000000 0.000000 0.000000 32.902654 -2.740927 0.963099 -51.126572 13.792967 -10.156252 61.983051 5.158381 -3.371797 2.148149 -2.341264 10.209791 -18.556367 0.820010 6.160731 0.000000 0.000000 0.000000 36.450930 -9.142475 2.868275 13.309206 0.397062 -3.056590 12.034399 1.848831 -0.127610 -0.233229 1.789728 1.160342 0.000000 0.000000 0.000000 26.628206 1.372002 -0.342082 -20.857268 -4.018413 5.461999 -16.455476 7.103631 -5.424208 0.000000 0.000000 0.000000 25.299854 2.263848 0.271261 4.061201 -1.066431 2.692257 2.055659 -16.463488 -4.668197 -29.318529 -42.335442 -37.063782 1.538294 -44.140463 1.535382 0.000000 0.000000 0.000000 24.435756 1.186712 0.295800 -2.220117 30.231015 12.085637 12.020408 9.802752 6.699917 -46.446376 21.876415 33.080023 2.187265 33.904366 -5.554348 0.000000 0.000000 0.000000 
5.396980 81.800362 -7.545170 0.000000 0.000000 0.000000 29.237055 -2.639276 -1.045898 -62.149852 8.784334 17.879429 28.282567 11.667521 -4.576677 5.251052 16.078991 -9.676111 0.721735 1.401011 -0.991716 0.000000 0.000000 0.000000 29.293974 -4.929890 1.093922 -50.909307 13.188193 -10.818186 58.208382 5.253367 -2.981238 0.210922 -1.889516 10.223896 -13.536669 1.265620 5.325085 0.000000 0.000000 0.000000 32.857209 -10.675438 2.662846 13.375364 0.419346 -3.011407 11.915108 1.958184 0.083345 -0.230181 1.647254 1.222932 0.000000 0.000000 0.000000 26.321990 1.457842 -0.204666 -20.301622 -3.709515 5.195210 -15.273001 7.750193 -5.176119 0.000000 0.000000 0.000000 24.908850 2.328364 0.493300 4.057090 -0.632048 1.571745 0.977736 -16.224368 -4.439312 -28.031090 -41.033079 -38.921235 1.368666 -42.324428 1.169680 0.000000 0.000000 0.000000 24.077455 1.325468 0.433828 -2.031418 29.062936 12.086345 12.729226 8.857871 7.244185 -44.679198 20.842303 34.441799 1.882551 32.732725 -5.711660 0.000000 0.000000 0.000000 
5.296348 82.776604 -6.598610 0.000000 0.000000 0.000000 26.116965 -4.418281 -1.151696 -57.541687 9.707467 18.061937 25.951036 12.105298 -4.407406 5.187435 15.788981 -9.824651 0.918442 1.465062 -1.023696 0.000000 0.000000 0.000000 25.867890 -6.395169 0.846355 -49.657244 12.214625 -11.563537 53.617029 5.515205 -2.573814 -1.249087 -1.074531 11.105053 -10.298304 1.522698 4.270996 0.000000 0.000000 0.000000 29.473561 -11.652224 2.122722 13.352588 0.399050 -2.944121 11.784880 2.044541 0.289242 -0.207208 1.522106 1.239770 0.000000 0.000000 0.000000 25.926124 1.509114 -0.062359 -19.805284 -3.388776 4.950244 -13.698731 8.311772 -4.984494 0.000000 0.000000 0.000000 24.449840 2.354248 0.727683 4.040011 -0.380661 0.625373 -0.003785 -16.020796 -4.250617 -26.810571 -39.850121 -40.759833 1.381612 -40.528594 0.996515 0.000000 0.000000 0.000000 23.650732 1.428841 0.584002 -1.793929 27.882096 11.938827 13.567453 8.020672 7.913919 -43.046055 19.542228 35.469582 1.523425 31.995765 -5.804165 0.000000 0.000000 0.000000 
5.180277 83.730194 -5.579895 0.000000 0.000000 0.000000 23.203806 -5.895286 -1.426238 -52.897558 10.673493 18.018143 23.864812 12.228986 -3.970478 5.091307 15.200390 -10.107313 1.060454 1.540781 -1.079013 0.000000 0.000000 0.000000 22.557046 -7.140612 0.367301 -47.522612 10.979830 -12.369701 48.705731 5.842803 -2.207812 -2.214334 -0.203792 12.335591 -8.160912 1.639950 3.164956 0.000000 0.000000 0.000000 26.141613 -12.069970 1.336787 13.283214 0.299268 -2.881257 11.652327 2.063625 0.467157 -0.171810 1.504807 1.194409 0.000000 0.000000 0.000000 25.447152 1.481527 0.082125 -19.338911 -3.048467 4.770702 -11.752690 8.776885 -4.801766 0.000000 0.000000 0.000000 23.952336 2.298310 0.949616 4.003547 -0.313458 -0.113974 -0.951192 -15.749849 -4.146296 -25.610249 -38.802554 -42.417042 1.566081 -38.817874 0.985721 0.000000 0.000000 0.000000 23.153684 1.438222 0.720942 -1.528850 26.665489 11.650847 14.410256 7.381727 8.668050 -41.704425 18.143868 36.395940 1.139886 31.629380 -5.852238 0.000000 0.000000 0.000000 
5.010679 84.653854 -4.570122 0.000000 0.000000 0.000000 20.362305 -7.084107 -1.767914 -48.284947 11.535980 17.614991 22.112707 11.941621 -3.284479 5.107486 14.280916 -10.711520 1.088454 1.621063 -1.105751 0.000000 0.000000 0.000000 19.376007 -7.429554 -0.121622 -44.922728 9.640776 -13.183139 43.778821 6.017006 -1.842983 -2.447735 0.304518 13.575938 -6.818588 1.614959 2.259097 0.000000 0.000000 0.000000 22.806046 -12.089031 0.441979 13.168314 0.099624 -2.813745 11.524799 1.993046 0.599196 -0.156157 1.610872 1.150525 0.000000 0.000000 0.000000 24.894083 1.353876 0.208305 -18.858656 -2.704971 4.690162 -9.567889 9.093226 -4.585888 0.000000 0.000000 0.000000 23.428828 2.139313 1.143281 3.945428 -0.421926 -0.669580 -1.781762 -15.496309 -4.065229 -24.360201 -37.866340 -43.732817 1.803137 -37.267756 1.044369 0.000000 0.000000 0.000000 22.596007 1.333685 0.834587 -1.276871 25.428002 11.319738 15.173605 6.966620 9.468225 -40.728059 16.751737 37.404694 0.763903 31.489686 -5.871529 0.000000 0.000000 0.000000 
4.755548 85.469154 -3.546692 0.000000 0.000000 0.000000 17.524035 -7.744284 -2.124268 -43.750302 12.305183 16.869235 20.723016 11.352975 -2.422953 5.141371 13.148189 -11.534914 1.121007 1.690378 -1.092001 0.000000 0.000000 0.000000 16.393368 -7.614011 -0.522089 -42.009341 8.381570 -13.875536 38.984674 5.959282 -1.625165 -2.031542 0.179243 14.459630 -6.091094 1.453734 1.706343 0.000000 0.000000 0.000000 19.390738 -11.912349 -0.428488 12.990390 -0.187293 -2.751979 11.398148 1.831912 0.677377 -0.134389 1.848524 1.064033 0.000000 0.000000 0.000000 24.298311 1.139854 0.305267 -18.272966 -2.390455 4.724892 -7.309178 9.245287 -4.327316 0.000000 0.000000 0.000000 22.895033 1.893341 1.292325 3.869118 -0.685001 -1.076298 -2.422156 -15.265696 -3.936881 -23.048822 -36.993408 -44.669113 2.016945 -35.951650 1.096735 0.000000 0.000000 0.000000 22.004721 1.126748 0.908377 -1.058366 24.202649 11.055255 15.788073 6.667806 10.137439 -40.051300 15.487189 38.580405 0.415451 31.295435 -5.858771 0.000000 0.000000 0.000000 
4.402436 86.146301 -2.507607 0.000000 0.000000 0.000000 14.732966 -8.016307 -2.427919 -39.356701 13.045793 15.937599 19.542225 10.548935 -1.476167 4.978031 11.975526 -12.474856 1.234014 1.751826 -1.024901 0.000000 0.000000 0.000000 13.646054 -7.654437 -0.828865 -38.758267 7.130508 -14.401375 34.718883 5.582669 -1.550631 -1.169008 -0.573689 14.813628 -6.055767 1.204215 1.535695 0.000000 0.000000 0.000000 15.964942 -11.573044 -1.203199 12.742010 -0.524934 -2.673899 11.261139 1.615723 0.700450 -0.090800 2.152998 1.054420 0.000000 0.000000 0.000000 23.678092 0.879766 0.356226 -17.494910 -2.143555 4.854577 -5.106332 9.180448 -4.070675 0.000000 0.000000 0.000000 22.336418 1.605576 1.388206 3.774749 -1.115534 -1.415571 -2.899961 -15.157460 -3.704768 -21.758408 -36.210644 -45.314275 2.157637 -34.883798 1.097412 0.000000 0.000000 0.000000 21.387583 0.874804 0.938713 -0.878215 23.030899 10.919837 16.189041 6.216663 10.637995 -39.621630 14.384908 39.922114 0.090526 30.905127 -5.815904 0.000000 0.000000 0.000000 
